<?xml version="1.0" encoding="UTF-8"?>
<svg version="1.1" xmlns="http://www.w3.org/2000/svg" width="1254" height="1254">
<path d="M0 0 C413.82 0 827.64 0 1254 0 C1254 413.82 1254 827.64 1254 1254 C840.18 1254 426.36 1254 0 1254 C0 840.18 0 426.36 0 0 Z " fill="#FDFDFD" transform="translate(0,0)"/>
<path d="M0 0 C1.06175446 0.00356506 1.06175446 0.00356506 2.1449585 0.00720215 C21.60648181 0.10842536 40.67060638 2.78911786 59.3125 8.4375 C60.46105469 8.73269531 61.60960937 9.02789062 62.79296875 9.33203125 C89.96897097 16.42011174 114.48974205 33.0356935 135.3125 51.4375 C135.83618164 51.89801758 136.35986328 52.35853516 136.89941406 52.83300781 C171.10354936 83.05548525 194.08049665 126.48825856 201.3125 171.4375 C201.489021 172.50766357 201.66554199 173.57782715 201.84741211 174.68041992 C202.35445014 178.77638224 202.474312 182.75000121 202.48046875 186.87109375 C202.48379715 187.66669205 202.48712555 188.46229034 202.49055481 189.28199768 C202.49559493 190.96199979 202.49796404 192.64201182 202.49780273 194.32202148 C202.49996695 196.8366039 202.51809191 199.35073065 202.53710938 201.86523438 C202.58515695 215.31648407 201.79335925 228.58854892 198.1875 241.625 C197.87099487 242.79047363 197.87099487 242.79047363 197.5480957 243.97949219 C186.73728273 282.28414216 164.16681573 311.92990617 134.25317383 337.73046875 C103.52311118 364.76086226 77.11473636 403.89454713 73.3125 445.4375 C72.14012022 464.67865342 73.08565892 483.39152841 80.3125 501.4375 C80.59834961 502.15776367 80.88419922 502.87802734 81.17871094 503.62011719 C88.06924106 520.69725176 97.45054305 535.21826646 110.3125 548.4375 C111.116875 549.30375 111.92125 550.17 112.75 551.0625 C125.37167055 564.28520248 140.33724031 573.75505197 156.3125 582.4375 C157.40433594 583.03433594 158.49617188 583.63117187 159.62109375 584.24609375 C166.91389392 588.05576548 174.50556176 590.8739043 182.23071289 593.65576172 C184.51317129 594.51285469 186.75382453 595.45197675 189.00390625 596.390625 C194.91568619 598.76909579 200.9724124 600.42951727 207.125 602.0625 C208.75405273 602.51109375 208.75405273 602.51109375 210.41601562 602.96875 C217.06667853 604.75278539 223.6508774 606.04217844 230.46655273 607.01269531 C233.67947215 607.49227666 236.79240616 608.19041385 239.9375 609 C244.77544626 610.16436733 249.4204226 610.86067749 254.38671875 611.12890625 C256.96522638 611.40087167 259.36355748 611.8520715 261.89453125 612.39453125 C305.07498959 621.22970295 357.29367599 618.14577233 400.19189453 608.86767578 C403.46685476 608.20333317 406.75045997 607.75761014 410.0625 607.3125 C418.34978881 606.18550645 426.2283593 604.22609404 434.29907227 602.04174805 C440.3286704 600.41340403 446.38965176 598.9292429 452.4609375 597.46484375 C505.27941112 583.37634622 554.37593913 555.89543547 595.625 520.375 C596.27782959 519.81449951 596.93065918 519.25399902 597.60327148 518.67651367 C600.90692234 515.92838021 600.90692234 515.92838021 603.3125 512.4375 C607.51388975 511.28417732 609.59300824 511.0915905 613.5625 513 C616.64045036 515.72818327 617.80277496 517.62724157 619.3125 521.4375 C619.5909375 522.02789063 619.869375 522.61828125 620.15625 523.2265625 C626.2949748 537.948134 622.02079914 558.29162119 616.3125 572.4375 C602.90039701 603.2084967 576.42969327 624.27496621 547.3125 639.4375 C546.24056396 639.99800049 546.24056396 639.99800049 545.14697266 640.56982422 C532.83803057 646.91505816 520.15084506 651.46121055 506.95043945 655.5949707 C504.57470226 656.35375544 502.22961998 657.17182105 499.87890625 658.00390625 C494.32332525 659.86237447 488.62421456 660.92136082 482.875 662 C481.72990967 662.21688477 480.58481934 662.43376953 479.4050293 662.65722656 C470.07105717 664.38179028 460.77602566 665.69149324 451.3125 666.4375 C450.42553279 666.51958364 449.53856558 666.60166727 448.62472057 666.68623829 C435.4740289 667.75430209 422.29663805 667.58749134 409.11181414 667.58288372 C405.42438746 667.58267761 401.73696834 667.58821843 398.04954529 667.59294128 C390.84121128 667.60120505 383.63288546 667.60399423 376.42454711 667.60455366 C370.5536722 667.60503111 364.68279996 667.60709722 358.81192589 667.61025429 C342.10910162 667.61905124 325.40628375 667.62367547 308.70345715 667.62292381 C307.80527381 667.62288386 306.90709047 667.6228439 305.98168945 667.62280273 C304.6327381 667.62274141 304.6327381 667.62274141 303.25653519 667.62267885 C288.7137759 667.62227324 274.1710426 667.63182387 259.62829081 667.6459411 C244.63919441 667.66037483 229.65011062 667.66720738 214.66100711 667.66634732 C206.26879857 667.66601763 197.87661726 667.6686633 189.48441505 667.67952538 C182.33289283 667.68872331 175.18141013 667.69073094 168.02988449 667.68401595 C164.39498052 667.68079607 160.76015194 667.68052483 157.12525558 667.6893692 C123.12992016 667.76667133 89.82831844 666.04357617 57.3125 655.4375 C56.60722168 655.20836914 55.90194336 654.97923828 55.17529297 654.74316406 C9.32642192 639.49340681 -27.09862267 606.27120881 -48.6875 563.4375 C-55.6875 548.11706469 -55.6875 548.11706469 -55.6875 542.4375 C-56.3475 542.4375 -57.0075 542.4375 -57.6875 542.4375 C-59.45268696 535.45951168 -61.11166435 528.46066878 -62.6875 521.4375 C-62.8628125 520.6640625 -63.038125 519.890625 -63.21875 519.09375 C-71.61586707 480.46701148 -64.33502304 435.12273472 -45.6875 400.4375 C-45.07652945 399.22020003 -44.46855611 398.00139203 -43.86328125 396.78125 C-38.97398677 387.08178397 -33.07037738 378.21225762 -26.6875 369.4375 C-26.04893066 368.55916504 -26.04893066 368.55916504 -25.39746094 367.66308594 C-20.06433138 360.39518538 -14.31650093 353.65723266 -8.15234375 347.08984375 C-6.19201132 344.98038936 -4.32695317 342.84804058 -2.5 340.625 C0.08623297 337.5611956 2.99115218 335.04395972 6.04296875 332.453125 C8.74381811 330.05443607 11.2790853 327.50963596 13.8125 324.9375 C17.56657045 321.13128074 21.4182114 317.51799027 25.484375 314.046875 C27.95914608 311.86823037 30.23998653 309.52161847 32.546875 307.16796875 C34.31864508 305.43147728 36.16280373 303.84466374 38.0625 302.25 C63.64175902 280.0780168 81.82511468 248.16405273 89.3125 215.4375 C89.48974609 214.66390137 89.66699219 213.89030273 89.84960938 213.09326172 C93.3581977 192.96329134 90.70590577 169.1483813 82.3125 150.4375 C81.83167969 149.35597656 81.35085938 148.27445313 80.85546875 147.16015625 C69.32736819 122.72706255 50.4541478 104.23579199 24.91015625 94.7734375 C23.33813625 94.21769911 21.76390085 93.66818726 20.1875 93.125 C19.45958252 92.87016846 18.73166504 92.61533691 17.98168945 92.3527832 C-5.01108222 84.78994825 -31.00131857 88.96693089 -52.3515625 99.171875 C-72.53018488 109.36381961 -85.6838209 126.03438853 -95.76977539 145.87719727 C-98.5066421 151.2566421 -98.5066421 151.2566421 -100.6875 153.4375 C-105.30566182 153.921246 -107.98843265 153.09697566 -111.9375 150.75 C-112.89785156 150.20214844 -113.85820312 149.65429688 -114.84765625 149.08984375 C-115.78480469 148.54457031 -116.72195313 147.99929688 -117.6875 147.4375 C-130.77037041 139.87228169 -143.88034757 137.80839879 -158.79370117 138.20410156 C-165.54918416 138.19248322 -165.54918416 138.19248322 -168.73339844 136.08056641 C-171.70086245 133.02170382 -172.68092176 131.27575589 -172.71484375 126.953125 C-165.49157741 102.23472306 -152.3592178 80.11072283 -134.6875 61.4375 C-133.22888807 59.7502408 -131.77055974 58.0627364 -130.3125 56.375 C-125.56056936 51.10512537 -120.28097235 46.78136683 -114.6875 42.4375 C-113.1715625 41.21546875 -113.1715625 41.21546875 -111.625 39.96875 C-88.4439166 21.43105453 -61.50748241 9.90445634 -32.5378418 4.03930664 C-30.5030167 3.60968404 -28.47629898 3.14089989 -26.45629883 2.64624023 C-17.57554992 0.5341062 -9.10808501 -0.08111355 0 0 Z " fill="#3EBB95" transform="translate(438.6875,349.5625)"/>
<path d="M0 0 C8.36114006 8.63875604 15.07185275 19.21241066 22 29 C22.62326172 29.87736816 23.24652344 30.75473633 23.88867188 31.65869141 C33.73035604 45.54161093 43.07905639 59.69133614 52.15869141 74.08300781 C53.88462944 76.81723051 55.61843343 79.54625573 57.35546875 82.2734375 C62.16514659 89.83631353 66.93229586 97.41812679 71.47802734 105.14331055 C73.71464608 108.92730428 76.04618974 112.63292441 78.4453125 116.31640625 C79.04287354 117.24598145 79.64043457 118.17555664 80.25610352 119.13330078 C81.43463422 120.96281879 82.62725943 122.78335614 83.83569336 124.59326172 C87.28197354 129.98086931 89.19241424 133.57459069 88 140 C84.33362539 145.28818811 78.51351761 147.42871651 72.8125 150 C71.00605409 150.83234369 69.20006288 151.66567491 67.39453125 152.5 C66.49186523 152.91241943 65.58919922 153.32483887 64.65917969 153.74975586 C62.13161276 154.93812074 59.66560918 156.20896562 57.19140625 157.50390625 C51.0545096 160.59498547 44.62684109 162.74764529 38.125 164.9375 C36.82478322 165.37864681 35.5245717 165.81980912 34.22436523 166.26098633 C30.48816298 167.52349639 26.74537141 168.76495215 23 170 C22.07300293 170.30615234 21.14600586 170.61230469 20.19091797 170.92773438 C-24.06423827 185.34491404 -70.64917038 191.20888861 -117.0625 191.25 C-118.56579361 191.25250763 -118.56579361 191.25250763 -120.09945679 191.25506592 C-172.70491707 191.26029649 -172.70491707 191.26029649 -183.5625 184.375 C-185.89915464 180.51444016 -185.51732018 176.20761272 -184.51245117 171.91943359 C-183.83565326 169.75541108 -183.09133351 167.62939147 -182.3125 165.5 C-181.75377118 163.90414827 -181.19650548 162.30778361 -180.640625 160.7109375 C-180.36154297 159.9178418 -180.08246094 159.12474609 -179.79492188 158.30761719 C-178.63420925 154.93812833 -177.59735752 151.53478398 -176.5625 148.125 C-174.69871696 142.04539007 -172.63182269 136.05293889 -170.5 130.0625 C-168.13536467 123.40492928 -165.98579861 116.73727974 -164.05908203 109.94140625 C-161.70133028 101.74912134 -158.93922387 93.68931301 -156.20947266 85.61499023 C-154.24612875 79.79620545 -152.35816925 73.97131914 -150.62158203 68.08081055 C-149.89674003 65.65432651 -149.08618274 63.26522048 -148.25 60.875 C-146.80847372 56.67648619 -145.57423209 52.47056281 -144.43359375 48.1796875 C-144.14645508 47.12539551 -143.85931641 46.07110352 -143.56347656 44.98486328 C-142.99104323 42.87094419 -142.43620608 40.75216023 -141.90136719 38.62841797 C-140.01788099 31.75380455 -137.48749083 26.69361922 -132 22 C-128.8125 20.6875 -128.8125 20.6875 -125 20 C-123.32550818 19.58863436 -121.65397118 19.16518022 -119.984375 18.734375 C-112.03766534 16.73071487 -104.04489706 14.94105171 -96.04858398 13.14819336 C-93.4661712 12.56893125 -90.88442179 11.98678225 -88.30273438 11.40429688 C-79.76278191 9.48211601 -71.21549002 7.59752254 -62.65234375 5.78125 C-61.88272812 5.61698013 -61.11311249 5.45271027 -60.32017517 5.28346252 C-54.91715166 4.14691215 -49.50125723 3.27696532 -44.03515625 2.49609375 C-40.83193658 1.97253017 -37.71687592 1.26297179 -34.5625 0.5 C-8.19746264 -5.78042607 -8.19746264 -5.78042607 0 0 Z " fill="#23B29D" transform="translate(873,749)"/>
<path d="M0 0 C2.5494088 -0.00217176 5.09837328 -0.02033876 7.64770508 -0.03930664 C22.47516998 -0.09029005 36.88875332 1.35698318 51.4309082 4.34545898 C52.09767578 4.48226074 52.76444336 4.6190625 53.45141602 4.76000977 C54.13300781 4.90035645 54.81459961 5.04070313 55.5168457 5.18530273 C56.22421875 5.32693848 56.9315918 5.46857422 57.66040039 5.61450195 C73.80220761 8.8680288 89.47161376 13.43840016 104.5168457 20.18530273 C106.01919265 20.83953955 107.52182136 21.49312955 109.0246582 22.14624023 C117.75374037 25.97153631 126.36312618 29.99418373 134.8293457 34.37280273 C135.98382202 34.96001099 135.98382202 34.96001099 137.16162109 35.55908203 C147.16412517 40.83056789 147.16412517 40.83056789 150.5168457 45.18530273 C151.94637487 52.43505777 148.77120238 58.80098634 146.1418457 65.49780273 C145.21306071 67.92994185 144.28468625 70.36223777 143.35668945 72.79467773 C142.87625679 74.04149917 142.3956259 75.28824423 141.91479492 76.53491211 C140.20125599 81.00938541 138.5451676 85.5034419 136.89599609 90.00195312 C135.2564517 94.46778855 133.59359234 98.92481717 131.9309082 103.38208008 C130.91112607 106.11952829 129.89972417 108.85995406 128.8918457 111.60180664 C127.46052822 115.49371774 126.01470695 119.38000089 124.56045532 123.26339722 C123.99472225 124.78123487 123.43373727 126.30085165 122.8777771 127.82229614 C122.09708206 129.95612904 121.29922666 132.0828058 120.49731445 134.20874023 C120.04251709 135.43512207 119.58771973 136.66150391 119.11914062 137.92504883 C117.22501977 141.77909269 116.02777661 143.65677444 112.5168457 146.18530273 C108.24985316 147.56475446 103.92563907 148.3906105 99.5168457 149.18530273 C98.45623932 149.38333496 97.39563293 149.58136719 96.30288696 149.78540039 C93.04046328 150.37831117 89.77376694 150.94024515 86.50512695 151.49780273 C71.83140943 154.0624149 57.27097839 157.07675633 42.7043457 160.18530273 C40.28060061 160.69871568 37.8567725 161.21173693 35.43286133 161.72436523 C29.58230534 162.96320997 23.73389916 164.21183792 17.88641357 165.46508789 C14.52936439 166.18262698 11.17091515 166.89331199 7.81225586 167.60327148 C5.73066211 168.04704378 3.64911665 168.49104267 1.56762695 168.93530273 C0.62106735 169.13389893 -0.32549225 169.33249512 -1.30073547 169.53710938 C-5.54596309 170.44901697 -9.49725272 171.41379092 -13.4831543 173.18530273 C-18.4437887 174.40799431 -22.08192936 174.02858207 -26.49487305 171.37280273 C-29.33765124 169.27158038 -32.03060642 166.99897037 -34.71069336 164.69555664 C-37.76156624 162.09601124 -40.91019448 159.61901733 -44.0456543 157.12280273 C-44.67947021 156.61330078 -45.31328613 156.10379883 -45.96630859 155.57885742 C-50.68942735 151.78576424 -55.51341257 148.14732426 -60.37768555 144.53686523 C-65.33822315 140.78058393 -70.16979649 136.86560256 -75.01831055 132.96655273 C-81.08060159 128.0919559 -87.25252404 123.36220045 -93.4206543 118.62280273 C-94.21608643 118.00296509 -94.21608643 118.00296509 -95.02758789 117.37060547 C-98.39570797 114.75306992 -101.81156687 112.2258144 -105.28393555 109.74780273 C-106.93376565 108.539593 -108.58350583 107.33126045 -110.2331543 106.12280273 C-111.03229248 105.56971436 -111.83143066 105.01662598 -112.65478516 104.44677734 C-116.47945906 101.60555545 -118.92843594 99.52019229 -119.77612305 94.69702148 C-119.87768444 89.7451184 -118.00905835 86.86138476 -115.0456543 83.06030273 C-114.10575135 81.74746684 -113.17095183 80.43096408 -112.2409668 79.11108398 C-111.77207031 78.45317871 -111.30317383 77.79527344 -110.82006836 77.11743164 C-100.17387336 61.73138576 -93.57417263 42.5227375 -89.2421875 24.44946289 C-87.68750518 18.45997423 -84.51582354 15.54041557 -79.4831543 12.18530273 C-77.04390985 11.50318903 -74.63512185 10.89813138 -72.16674805 10.34545898 C-71.07994751 10.09517944 -71.07994751 10.09517944 -69.97119141 9.83984375 C-67.62260197 9.30187625 -65.27188393 8.77410209 -62.9206543 8.24780273 C-62.12515167 8.06788788 -61.32964905 7.88797302 -60.51004028 7.7026062 C-49.23131675 5.15402034 -37.96250985 2.65826352 -26.4831543 1.18530273 C-25.48868286 1.04717163 -25.48868286 1.04717163 -24.47412109 0.90625 C-16.34455035 -0.08332255 -8.1767302 -0.00077644 0 0 Z " fill="#47BF91" transform="translate(750.483154296875,572.814697265625)"/>
<path d="M0 0 C17.95080472 -0.5924358 42.72754792 -0.52459723 56.8671875 12.078125 C59.94235299 15.64928492 60.45589924 18.91174257 60.2734375 23.49609375 C58.12201558 37.17003502 48.32034037 47.77466615 39.234375 57.5234375 C37.23228186 59.68411228 35.32266009 61.885361 33.4296875 64.140625 C26.70889543 71.85300934 18.6862706 78.32040403 10.75 84.73046875 C7.02338531 87.7652864 3.36574683 90.87736717 -0.29418945 93.99194336 C-3.72305167 96.90345242 -7.19237219 99.75561194 -10.6953125 102.578125 C-15.76888743 106.70502706 -20.57022392 111.07915058 -25.36328125 115.5234375 C-27.59199643 117.57926222 -29.84049169 119.59429457 -32.1328125 121.578125 C-37.90639047 126.58270633 -43.72885281 131.67416531 -49.1328125 137.078125 C-47.76962891 136.13453125 -47.76962891 136.13453125 -46.37890625 135.171875 C-34.88766803 127.31042355 -23.04123018 120.38065345 -10.1328125 115.078125 C-9.33617187 114.74167969 -8.53953125 114.40523438 -7.71875 114.05859375 C-2.70914671 111.98806112 2.30919807 110.28278581 7.51953125 108.79296875 C10.12303429 108.03897475 10.12303429 108.03897475 13.5546875 106.578125 C36.37402473 97.78365426 64.65412341 98.57881107 87.1796875 107.390625 C99.27261986 112.84072739 112.78698495 120.04630107 117.8671875 133.078125 C118.78357883 138.93329793 119.00803986 144.27151653 115.4921875 149.265625 C114.32297994 150.57254523 113.11092786 151.84192246 111.8671875 153.078125 C111.19816406 153.79484375 110.52914063 154.5115625 109.83984375 155.25 C84.56219287 180.31160258 41.96806755 183.55438193 8.6171875 188.953125 C7.65244507 189.1106424 6.68770264 189.26815979 5.69372559 189.43045044 C2.91426123 189.8812793 0.13332282 190.3213987 -2.6484375 190.7578125 C-3.47239014 190.89185989 -4.29634277 191.02590729 -5.14526367 191.16401672 C-19.09161849 193.30680489 -19.09161849 193.30680489 -23.94921875 190.3828125 C-26.13925388 188.07132641 -28.13155864 185.72926369 -30.0703125 183.203125 C-38.29131208 172.97133184 -47.7148232 163.86269646 -58.0234375 155.75 C-60.1328125 154.078125 -60.1328125 154.078125 -62.1328125 152.078125 C-62.1328125 150.758125 -62.1328125 149.438125 -62.1328125 148.078125 C-63.02355469 148.14773438 -63.91429687 148.21734375 -64.83203125 148.2890625 C-68.74395093 148.03907 -69.94709313 147.15401192 -72.9453125 144.703125 C-84.98117386 135.4886783 -98.15562057 128.8108422 -112.1328125 123.078125 C-113.14601563 122.63984375 -114.15921875 122.2015625 -115.203125 121.75 C-130.44019139 115.17683555 -130.44019139 115.17683555 -146.4453125 111.015625 C-150.1328125 110.078125 -150.1328125 110.078125 -152.6953125 107.953125 C-154.5389702 104.2658096 -154.71943117 101.0929814 -154.1328125 97.078125 C-153.02631524 94.29936012 -151.49355484 91.92390276 -149.8203125 89.453125 C-149.37026855 88.76436279 -148.92022461 88.07560059 -148.45654297 87.3659668 C-120.35451392 45.06731685 -77.03458477 13.54945987 -26.93896484 3.29516602 C-17.95930117 1.56203819 -9.1431908 0.33491541 0 0 Z " fill="#F25C48" transform="translate(642.1328125,220.921875)"/>
<path d="M0 0 C2.55022433 1.96171103 4.93543429 4.01907956 7.3125 6.1875 C8.27929688 7.06148437 9.24609375 7.93546875 10.2421875 8.8359375 C18.00434238 16.09194579 23.85047111 24.10682022 29.3125 33.1875 C29.6950293 33.82171875 30.07755859 34.4559375 30.47167969 35.109375 C38.11119138 47.92656085 44.54913332 61.43197763 50.3125 75.1875 C50.69196777 76.09024658 51.07143555 76.99299316 51.46240234 77.9230957 C79.47065805 144.89000607 79.47065805 144.89000607 66.3125 179.1875 C63.4565282 185.97684613 60.66973997 192.47835965 53.875 195.9375 C34.53537757 202.72333243 13.50934417 197.47423887 -4.2824707 189.00585938 C-7.09770005 187.61615158 -9.45277731 186.42222269 -11.6875 184.1875 C-11.84140392 180.33990201 -11.63633844 178.27912481 -9.078125 175.3359375 C-7.68329433 174.02220163 -6.28459248 172.71256827 -4.8828125 171.40625 C5.18764933 161.22827435 8.81789142 148.13546206 9.3125 134.1875 C-8.50637671 134.56382263 -23.68295929 136.7422893 -37.375 149.1875 C-49.62339993 162.0222595 -50.97196146 177.3583009 -51.21923828 194.15600586 C-51.25294712 196.23574636 -51.29801371 198.31502612 -51.34375 200.39453125 C-51.36244141 201.6266333 -51.38113281 202.85873535 -51.40039062 204.12817383 C-51.6875 207.1875 -51.6875 207.1875 -53.6875 210.1875 C-57.96491312 210.86288102 -60.68063102 210.5224206 -64.15234375 208.02734375 C-65.32458789 207.07775122 -66.4818038 206.10937023 -67.625 205.125 C-68.23545166 204.62057373 -68.84590332 204.11614746 -69.47485352 203.59643555 C-71.22603491 202.14211977 -72.95736426 200.66672406 -74.6875 199.1875 C-75.491875 198.52492188 -76.29625 197.86234375 -77.125 197.1796875 C-81.81356394 193.24202638 -85.81098895 188.91748159 -89.6875 184.1875 C-90.43773437 183.30964844 -91.18796875 182.43179688 -91.9609375 181.52734375 C-110.80877114 158.48779948 -120.51553757 129.69512904 -120.20898438 100.08032227 C-120.18746421 97.62090958 -120.20898335 95.16440594 -120.234375 92.70507812 C-120.28592114 61.87339603 -108.18694442 31.32514685 -86.6875 9.1875 C-86.12675781 8.56488281 -85.56601563 7.94226563 -84.98828125 7.30078125 C-62.55845008 -16.86695452 -26.47602049 -17.85592079 0 0 Z " fill="#333F52" transform="translate(318.6875,523.8125)"/>
<path d="M0 0 C6.70593069 2.01504243 11.90615114 6.90088127 17.21630859 11.31445312 C19.6419633 13.32148199 22.12015378 15.25359384 24.60717773 17.18359375 C26.91975353 18.9811389 29.21466833 20.8005978 31.51074219 22.61914062 C34.32260775 24.84472979 37.14146162 27.06140815 39.9609375 29.27734375 C40.81631104 29.94975098 40.81631104 29.94975098 41.68896484 30.63574219 C46.4355539 34.36342993 51.19638106 38.07265908 55.9609375 41.77734375 C56.7135083 42.36257813 57.4660791 42.9478125 58.24145508 43.55078125 C62.14902732 46.58830001 66.05922193 49.62238107 69.97265625 52.65234375 C91.85192023 69.60582648 91.85192023 69.60582648 96.2109375 73.96484375 C96.87223366 81.57743913 95.10377162 87.86485247 92.8359375 95.08984375 C92.30226563 96.83962524 92.30226563 96.83962524 91.7578125 98.62475586 C88.58796924 108.94382537 85.26707325 119.21652592 81.92431641 129.48071289 C79.26910316 137.63816233 76.70291414 145.8183679 74.2109375 154.02734375 C70.45704237 166.34658418 66.40250842 178.55580122 62.28366089 190.75720215 C60.77466245 195.24395292 59.30695326 199.74292543 57.85717773 204.24914551 C56.78705283 207.5725298 55.70676417 210.89257348 54.62585449 214.21246338 C54.10227141 215.82969669 53.58341235 217.44846759 53.06945801 219.06878662 C52.35030062 221.33391533 51.61450501 223.59300915 50.875 225.8515625 C50.66491302 226.52826492 50.45482605 227.20496735 50.2383728 227.9021759 C48.9584009 231.74633567 47.82406396 234.00057359 44.2109375 235.96484375 C18.00929269 238.61878567 -16.64981394 214.55525433 -35.71875 198.99829102 C-46.2214367 190.27277265 -54.30248529 180.32966685 -61.7890625 168.96484375 C-62.60697266 167.82015625 -62.60697266 167.82015625 -63.44140625 166.65234375 C-67.26152443 160.97789765 -69.41788514 154.83844543 -71.6015625 148.40234375 C-72.05523193 147.07203125 -72.05523193 147.07203125 -72.51806641 145.71484375 C-80.62281669 120.73718175 -75.92745652 91.81235715 -64.27319336 68.83154297 C-53.71235102 48.53706793 -39.73879313 31.85786678 -23.6640625 15.71484375 C-22.89980957 14.94591797 -22.13555664 14.17699219 -21.34814453 13.38476562 C-7.50299433 -0.42140105 -7.50299433 -0.42140105 0 0 Z " fill="#2EB799" transform="translate(612.7890625,691.03515625)"/>
<path d="M0 0 C4.09920838 0.26741132 6.04233578 2.02559069 8.98828125 4.78125 C10.3016748 6.00545654 10.3016748 6.00545654 11.64160156 7.25439453 C16.11661385 11.54474661 20.55218599 15.86790812 24.9375 20.25 C25.81857422 21.11882813 26.69964844 21.98765625 27.60742188 22.8828125 C33.63491078 28.89695641 39.10519257 35.19050887 44.375 41.875 C44.95032471 42.5963916 45.52564941 43.3177832 46.1184082 44.06103516 C64.07567852 66.71753289 78.52411457 91.53007936 90.375 117.875 C90.91616455 119.06923584 90.91616455 119.06923584 91.46826172 120.28759766 C96.73935815 132.01815666 100.87720314 143.96430841 104.58007812 156.27392578 C105.32892632 158.7242417 106.11740916 161.15731691 106.921875 163.58984375 C110.00277378 173.08072942 113.03225429 183.37737246 109 193.0625 C104.08125492 201.3301779 95.64388442 207.71663959 88.375 213.875 C87.385 214.7309375 86.395 215.586875 85.375 216.46875 C82.0755194 219.31238131 78.73625049 222.10478279 75.375 224.875 C74.385 225.69484375 73.395 226.5146875 72.375 227.359375 C64.72183446 233.35435467 64.72183446 233.35435467 60.0625 233.875 C54.58160443 232.38865544 53.18889459 229.64408895 50.375 224.875 C50.04338867 224.32166992 49.71177734 223.76833984 49.37011719 223.19824219 C47.30529701 219.75074635 45.27495991 216.28416374 43.2578125 212.80859375 C28.34130238 187.17894033 12.28957032 162.22718279 -4.625 137.875 C-5.1504541 137.11783691 -5.6759082 136.36067383 -6.21728516 135.58056641 C-12.5657908 126.45624545 -19.08248642 117.46428784 -25.73071289 108.5559082 C-26.8326606 107.07357802 -27.92619659 105.58495324 -29.01074219 104.08984375 C-30.10736963 102.58521517 -31.22895852 101.09853013 -32.37207031 99.62890625 C-35.71878092 95.10388688 -37.45064966 91.79005511 -37.02832031 86.08984375 C-36.33735293 82.29537881 -35.03199572 78.90245234 -33.5 75.375 C-31.11690113 69.69889178 -28.92278878 63.98333075 -26.890625 58.171875 C-23.53599107 48.5797186 -20.07339273 39.02930732 -16.55615234 29.49560547 C-15.84466039 27.56178151 -15.13705378 25.62652414 -14.43310547 23.68994141 C-13.39933021 20.84717826 -12.35336988 18.00916741 -11.3046875 15.171875 C-10.9941745 14.31043884 -10.6836615 13.44900269 -10.36373901 12.5614624 C-6.23775002 1.5056638 -6.23775002 1.5056638 0 0 Z " fill="#26B49A" transform="translate(928.625,638.125)"/>
<path d="M0 0 C0.33 0 0.66 0 1 0 C1.03963867 0.83845459 1.07927734 1.67690918 1.12011719 2.54077148 C2.35723906 27.59932443 5.18325485 51.31272379 11.875 75.5625 C12.08165283 76.31382202 12.28830566 77.06514404 12.5012207 77.8392334 C16.20243698 91.17370223 20.38072922 104.48260634 26.75 116.8125 C27.07798584 117.45010254 27.40597168 118.08770508 27.74389648 118.74462891 C28.44806549 120.10904853 29.15637884 121.47133661 29.86865234 122.83154297 C31.09032401 125.17312426 32.28962169 127.5254687 33.48828125 129.87890625 C37.8317663 138.34601584 42.27327652 146.37348042 48 154 C49.12830325 155.64357054 50.25321337 157.28947479 51.375 158.9375 C55.29837311 164.53484563 59.61664772 169.75980503 64 175 C64.78761719 175.97453125 65.57523437 176.9490625 66.38671875 177.953125 C77.49910712 191.58770456 90.04543886 204.27935303 104 215 C105.79278382 216.45695976 107.58446979 217.91527156 109.375 219.375 C112.46298988 221.88463726 115.5733296 223.98183829 119 226 C120.79726684 227.19998783 122.58852878 228.40899858 124.375 229.625 C168.83554465 259.17565256 218.19434176 271.60165025 271 275 C271 275.33 271 275.66 271 276 C181.57 276 92.14 276 0 276 C0 184.92 0 93.84 0 0 Z " fill="#010101" transform="translate(0,978)"/>
<path d="M0 0 C89.76 0 179.52 0 272 0 C272 0.33 272 0.66 272 1 C271.11666992 1.06469482 270.23333984 1.12938965 269.32324219 1.19604492 C242.00271465 3.25373917 215.13721885 6.31523752 189 15 C187.98147949 15.33596191 186.96295898 15.67192383 185.91357422 16.01806641 C162.69026085 23.81712194 140.34440539 34.11957618 120.62548828 48.79345703 C119.04601418 49.96584529 117.44316099 51.10652958 115.83984375 52.24609375 C111.72804646 55.17360488 107.76787355 58.13946413 104 61.5 C101 64 101 64 98 64 C97.7436377 64.59417725 97.48727539 65.18835449 97.22314453 65.80053711 C95.88170588 68.21271691 94.55768614 69.45151122 92.4296875 71.19140625 C86.88193202 75.88556447 81.89127346 81.09360152 76.828125 86.29882812 C76.10367188 87.03423828 75.37921875 87.76964844 74.6328125 88.52734375 C73.98199707 89.19499756 73.33118164 89.86265137 72.66064453 90.55053711 C71 92 71 92 69 92 C68.91363281 92.57363281 68.82726562 93.14726563 68.73828125 93.73828125 C67.7897472 96.64410777 66.32881861 98.00759908 64.1875 100.1875 C21.9605986 145.95558142 3.25374579 212.14886378 1 273 C0.67 273 0.34 273 0 273 C0 182.91 0 92.82 0 0 Z " fill="#010101" transform="translate(0,0)"/>
<path d="M0 0 C0.33 0 0.66 0 1 0 C1 90.75 1 181.5 1 275 C-88.43 275 -177.86 275 -270 275 C-270 274.67 -270 274.34 -270 274 C-268.53699463 273.89510254 -268.53699463 273.89510254 -267.04443359 273.78808594 C-239.33241178 271.80735308 -239.33241178 271.80735308 -212 267 C-210.64455078 266.69304199 -210.64455078 266.69304199 -209.26171875 266.37988281 C-190.59005902 262.06060883 -171.3217376 256.51762661 -154.4296875 247.2890625 C-151.98027152 245.98953312 -149.47203508 244.93371093 -146.91894531 243.85742188 C-135.37540636 238.69954544 -124.65870148 231.77597174 -114.58642578 224.18945312 C-113.0690749 223.05179023 -111.53294954 221.93929772 -109.99609375 220.828125 C-91.10018712 207.03990019 -73.19651834 190.63100563 -59 172 C-58.12408203 170.90751953 -58.12408203 170.90751953 -57.23046875 169.79296875 C-52.90934715 164.37937397 -48.97304677 158.71506818 -45.06640625 153 C-43.51992477 150.75482461 -41.94401409 148.55734682 -40.3125 146.375 C-10.53540344 104.52610754 -2.49592722 49.89825222 0 0 Z " fill="#000000" transform="translate(1253,979)"/>
<path d="M0 0 C88.77 0 177.54 0 269 0 C269 89.76 269 179.52 269 272 C268.67 272 268.34 272 268 272 C267.96036133 271.26289795 267.92072266 270.5257959 267.87988281 269.76635742 C265.29937007 223.62008879 257.09183749 176.72874269 232 137 C231.12489017 135.47922986 230.2498953 133.95839357 229.375 132.4375 C217.48846542 112.59516318 202.70420151 94.54850122 186.4375 78.1875 C185.56343506 77.30425049 184.68937012 76.42100098 183.78881836 75.51098633 C178.15515025 69.90371531 172.27570223 64.86944347 166 60 C164.89587554 59.09453517 163.79508209 58.184977 162.69921875 57.26953125 C145.21704072 43.00715773 125.28297789 32.19951428 104.875 22.75 C103.99271729 22.3372583 103.11043457 21.9245166 102.20141602 21.49926758 C90.58485917 16.22193685 78.23089158 13.16240415 65.9375 9.875 C64.66583984 9.52824219 63.39417969 9.18148438 62.08398438 8.82421875 C47.66407203 4.96213858 33.58548989 3.43911488 18.75 2.375 C16.925744 2.24008613 15.10152483 2.10467322 13.27734375 1.96875 C8.85196581 1.64008302 4.42614544 1.3181571 0 1 C0 0.67 0 0.34 0 0 Z " fill="#010101" transform="translate(985,0)"/>
<path d="M0 0 C6.21839502 5.98431468 10.48714513 10.82778463 11.01171875 19.734375 C10.75704543 26.13304211 8.84957341 29.36106794 4.38671875 33.796875 C3.71769531 34.51359375 3.04867187 35.2303125 2.359375 35.96875 C-22.91827588 61.03035258 -65.5124012 64.27313193 -98.86328125 69.671875 C-99.82802368 69.8293924 -100.79276611 69.98690979 -101.78674316 70.14920044 C-104.56620752 70.6000293 -107.34714593 71.0401487 -110.12890625 71.4765625 C-110.95285889 71.61060989 -111.77681152 71.74465729 -112.62573242 71.88276672 C-126.57208724 74.02555489 -126.57208724 74.02555489 -131.4296875 71.1015625 C-133.61972263 68.79007641 -135.61202739 66.44801369 -137.55078125 63.921875 C-145.77178083 53.69008184 -155.19529195 44.58144646 -165.50390625 36.46875 C-167.61328125 34.796875 -167.61328125 34.796875 -169.61328125 32.796875 C-169.61328125 31.476875 -169.61328125 30.156875 -169.61328125 28.796875 C-171.59328125 28.796875 -173.57328125 28.796875 -175.61328125 28.796875 C-175.61328125 28.466875 -175.61328125 28.136875 -175.61328125 27.796875 C-173.78796875 27.7040625 -173.78796875 27.7040625 -171.92578125 27.609375 C-167.38756907 27.0580781 -165.63793438 25.23026504 -162.61328125 21.796875 C-160.95401804 20.78463817 -159.28600551 19.78670899 -157.61328125 18.796875 C-156.09121196 17.68149618 -154.56978178 16.56513847 -153.05932617 15.43408203 C-142.18179606 7.33895742 -130.16722087 0.91501961 -117.61328125 -4.203125 C-116.4221875 -4.70585937 -116.4221875 -4.70585937 -115.20703125 -5.21875 C-110.19510636 -7.29158313 -105.17414612 -8.997642 -99.9609375 -10.48828125 C-97.35743446 -11.24227525 -97.35743446 -11.24227525 -93.92578125 -12.703125 C-64.48985027 -24.04760144 -24.49144331 -20.64749481 0 0 Z " fill="#FAAE2C" transform="translate(749.61328125,340.203125)"/>
<path d="M0 0 C0.93448975 -0.00547852 1.86897949 -0.01095703 2.83178711 -0.01660156 C12.28520065 0.0804681 21.27720886 1.42071485 29.9375 5.3125 C30.61095459 5.6130127 31.28440918 5.91352539 31.97827148 6.22314453 C45.45684674 12.54564267 56.33220965 22.46871826 62.171875 36.34765625 C64.00548681 42.45165348 64.58577349 48.82281891 61.98828125 54.7734375 C58.6466886 59.69885352 54.60605345 62.35428231 49.0625 64.3125 C48.24523437 64.61027344 47.42796875 64.90804687 46.5859375 65.21484375 C27.67449495 70.99481985 7.93371255 66.23244994 -10.5625 61.3125 C-11.4994873 61.0635498 -12.43647461 60.81459961 -13.40185547 60.55810547 C-21.17155788 58.41226796 -27.34725542 56.36838407 -31.9375 49.3125 C-33.39784729 46.54464861 -34.61557263 43.70249844 -35.8125 40.8125 C-38.79057084 33.81618116 -42.03889814 27.09588153 -45.6875 20.42578125 C-47.15335994 16.77487384 -47.38166959 14.21286424 -46.9375 10.3125 C-44.02316504 5.60082258 -37.02009979 5.02083875 -32.01464844 3.79882812 C-21.33508629 1.29839468 -10.98396242 0.04627449 0 0 Z " fill="#3B8FED" transform="translate(684.9375,424.6875)"/>
<path d="M0 0 C7.41084703 6.34064707 12.36206954 14.86772826 13.23828125 24.6640625 C13.48669106 34.57430655 11.07173444 42.34030283 4.828125 50.11328125 C-3.2317596 58.43149548 -11.45852872 61.13270135 -22.75 61.5 C-31.52172682 61.53155664 -38.44891646 59.00528939 -45.1171875 53.13671875 C-50.94278803 46.89857569 -55.54442729 39.65588158 -56 31 C-56.0928125 29.85917969 -56.0928125 29.85917969 -56.1875 28.6953125 C-56.64329975 19.55083009 -53.46165716 11.96245888 -47.7578125 4.8828125 C-34.24412422 -9.59184917 -16.33963398 -11.03534982 0 0 Z " fill="#374356" transform="translate(451,502)"/>
<path d="M0 0 C1.52602822 0.01509794 3.05207116 0.02877717 4.578125 0.04101562 C8.26073044 0.07356191 11.94276556 0.12505125 15.625 0.1875 C15.625 0.5175 15.625 0.8475 15.625 1.1875 C14.78203369 1.21255615 13.93906738 1.2376123 13.07055664 1.26342773 C9.95258326 1.35838155 6.83478497 1.45762448 3.71704102 1.55981445 C2.36585853 1.60321223 1.01461947 1.6448837 -0.33666992 1.68481445 C-2.27536701 1.74239952 -4.21386276 1.80664298 -6.15234375 1.87109375 C-7.32015381 1.90775146 -8.48796387 1.94440918 -9.69116211 1.98217773 C-12.29279795 1.88826188 -12.29279795 1.88826188 -13.375 3.1875 C-15.70747761 3.52676947 -18.04085471 3.85990066 -20.375 4.1875 C-21.035 4.5175 -21.695 4.8475 -22.375 5.1875 C-23.35339844 5.15914063 -24.33179688 5.13078125 -25.33984375 5.1015625 C-30.37987053 5.03110911 -35.07729976 6.34488474 -39.9375 7.5625 C-41.31711914 7.89507812 -41.31711914 7.89507812 -42.72460938 8.234375 C-47.35322646 9.36574079 -51.87924078 10.59753637 -56.375 12.1875 C-57.75115448 12.65538228 -59.12746989 13.12279136 -60.50390625 13.58984375 C-61.98198902 14.10093193 -63.45984999 14.61266196 -64.9375 15.125 C-65.67935547 15.37701172 -66.42121094 15.62902344 -67.18554688 15.88867188 C-71.2320828 17.29757263 -74.75529193 18.84910452 -78.375 21.1875 C-79.61681875 21.82860155 -80.86651344 22.45476931 -82.125 23.0625 C-99.23231305 31.58435855 -114.42402536 43.16371533 -128.375 56.1875 C-129.17808594 56.92484375 -129.98117187 57.6621875 -130.80859375 58.421875 C-149.22179038 75.98069931 -164.5067351 100.63365831 -170.453125 125.45703125 C-171.375 128.1875 -171.375 128.1875 -174.375 130.1875 C-171.45590418 104.604413 -153.60529339 79.39428168 -136.375 61.1875 C-134.91638807 59.5002408 -133.45805974 57.8127364 -132 56.125 C-127.24806936 50.85512537 -121.96847235 46.53136683 -116.375 42.1875 C-114.8590625 40.96546875 -114.8590625 40.96546875 -113.3125 39.71875 C-90.13890849 21.18704573 -63.18768616 9.63019594 -34.21875 3.7902832 C-32.20449389 3.36332593 -30.19960467 2.89102752 -28.203125 2.38745117 C-18.66164714 0.06834197 -9.74045846 -0.17034018 0 0 Z " fill="#79D18E" transform="translate(440.375,349.8125)"/>
<path d="M0 0 C0.66 0.33 1.32 0.66 2 1 C-0.95956629 4.6254687 -3.8563994 7.98309905 -7.4375 11 C-11.70480558 14.63174943 -15.66155481 18.54379884 -19.625 22.5 C-20.25849365 23.1290625 -20.8919873 23.758125 -21.54467773 24.40625 C-25.5730647 28.44673738 -29.33617149 32.62595243 -33 37 C-33.66 36.34 -34.32 35.68 -35 35 C-28.61329313 27.84081887 -22.02492539 20.91766273 -15.25 14.125 C-14.54174072 13.412229 -13.83348145 12.69945801 -13.10375977 11.96508789 C-8.89176954 7.76491665 -4.56592681 3.81290746 0 0 Z " fill="#44C293" transform="translate(605,692)"/>
<path d="M0 0 C0.97582031 0.00902344 1.95164062 0.01804687 2.95703125 0.02734375 C4.06111328 0.04474609 4.06111328 0.04474609 5.1875 0.0625 C5.1875 0.3925 5.1875 0.7225 5.1875 1.0625 C2.1667686 1.54231648 -0.85408021 2.02137232 -3.875 2.5 C-5.14633789 2.70206055 -5.14633789 2.70206055 -6.44335938 2.90820312 C-11.22801507 3.66561966 -16.01325049 4.40225643 -20.8125 5.0625 C-21.9984375 5.24683594 -23.184375 5.43117188 -24.40625 5.62109375 C-30.34944236 6.35395362 -36.33519181 6.16769506 -42.3125 6.125 C-44.11847656 6.11823242 -44.11847656 6.11823242 -45.9609375 6.11132812 C-48.91151073 6.0996195 -51.86197859 6.08321995 -54.8125 6.0625 C-54.8125 5.7325 -54.8125 5.4025 -54.8125 5.0625 C-53.50579346 4.94656494 -52.19908691 4.83062988 -50.8527832 4.71118164 C-45.99771671 4.27969619 -41.1429783 3.84461151 -36.28833008 3.40844727 C-34.1884828 3.22029239 -32.0885482 3.03310939 -29.98852539 2.84692383 C-26.96737476 2.57890124 -23.94655699 2.30736761 -20.92578125 2.03515625 C-19.98914139 1.95282242 -19.05250153 1.87048859 -18.08747864 1.78565979 C-12.00586162 1.23307006 -6.10636888 -0.07357071 0 0 Z " fill="#1DB3A1" transform="translate(830.8125,960.9375)"/>
<path d="M0 0 C3.47363445 0.44533775 6.64369836 1.17609242 9.9296875 2.34765625 C15.75745535 4.32229559 21.70223503 5.71628595 27.6875 7.125 C28.78900391 7.38925781 29.89050781 7.65351562 31.02539062 7.92578125 C36.00466433 9.10974857 40.94264699 10.19878888 46 11 C44 13 44 13 42.04125977 13.07543945 C35.19180579 12.29559574 28.61442394 10.88731071 21.9375 9.1875 C20.40125977 8.8152832 20.40125977 8.8152832 18.83398438 8.43554688 C12.68137719 6.89051517 6.52236255 5.21353195 1 2 C0.67 1.34 0.34 0.68 0 0 Z " fill="#2DB59F" transform="translate(488,1000)"/>
<path d="M0 0 C0.66 0 1.32 0 2 0 C0.68981679 3.93054964 -1.67957817 5.19224384 -5 7.375 C-5.64066406 7.79837646 -6.28132812 8.22175293 -6.94140625 8.65795898 C-13.42787831 12.82175442 -20.1850907 16.46916611 -27 20.0625 C-28.61068359 20.92077393 -28.61068359 20.92077393 -30.25390625 21.79638672 C-35.54896032 24.53420801 -40.00330606 26.71890497 -46 27 C-43.19868136 24.76369036 -40.48154794 23.17912482 -37.2109375 21.72265625 C-17.29619162 12.97068698 -17.29619162 12.97068698 0 0 Z " fill="#22B1A2" transform="translate(1013,969)"/>
<path d="M0 0 C5.63617433 0.46968119 10.21417541 1.90672313 15 5 C15.33 5.66 15.66 6.32 16 7 C16.73476563 7.28359375 17.46953125 7.5671875 18.2265625 7.859375 C22.57234955 9.64665643 25.73772414 12.71142107 29.30078125 15.72265625 C30.80994337 16.99594354 32.3364016 18.25144478 33.91796875 19.43359375 C39.41036499 23.62138281 42.99275387 29.31945066 46.86328125 34.953125 C48.83209043 37.94738272 48.83209043 37.94738272 51 40 C50.01 40.33 49.02 40.66 48 41 C47.21689453 39.78376953 47.21689453 39.78376953 46.41796875 38.54296875 C35.89552541 22.56012545 22.78397106 11.34205609 5.4609375 3.19140625 C3 2 3 2 0 0 Z " fill="#6CCB8F" transform="translate(465,444)"/>
<path d="M0 0 C3.94224976 -0.22527142 6.3807219 0.51938623 10 2 C11.49509725 2.35467636 12.99579068 2.68620799 14.5 3 C17.83873242 3.70230432 20.8770384 4.58963025 24 6 C24 6.66 24 7.32 24 8 C26.97 8.495 26.97 8.495 30 9 C30 9.66 30 10.32 30 11 C32.475 11.495 32.475 11.495 35 12 C35 12.66 35 13.32 35 14 C36.32 14.33 37.64 14.66 39 15 C39 15.66 39 16.32 39 17 C35.27638414 15.57986184 31.78464367 13.89995366 28.25 12.0625 C23.23655123 9.54357744 18.38255559 7.54863574 13 6 C11.78957031 5.64808594 10.57914062 5.29617188 9.33203125 4.93359375 C5.89237942 3.94010836 2.44745894 2.96607313 -1 2 C-0.67 1.34 -0.34 0.68 0 0 Z " fill="#74CE90" transform="translate(293,485)"/>
<path d="M0 0 C0.33 0.99 0.66 1.98 1 3 C-2.76234426 6.83651097 -6.53444439 10.66305527 -10.31591797 14.48071289 C-11.60087476 15.78075438 -12.8831259 17.08347592 -14.16259766 18.38891602 C-16.00238259 20.26509701 -17.85168861 22.13141846 -19.703125 23.99609375 C-20.55804535 24.87423988 -20.55804535 24.87423988 -21.43023682 25.77012634 C-24.21640903 28.55746712 -26.11899143 30.27794204 -30 31 C-28.00802069 28.65942431 -26.00719342 26.32749024 -24 24 C-23.37351562 23.26652344 -22.74703125 22.53304687 -22.1015625 21.77734375 C-18.31963339 17.41990369 -14.43627251 13.49673034 -10.03125 9.7734375 C-6.50946665 6.69864972 -3.26497509 3.34312609 0 0 Z " fill="#49C393" transform="translate(455,672)"/>
<path d="M0 0 C1.52602822 0.01509794 3.05207116 0.02877717 4.578125 0.04101562 C8.26073044 0.07356191 11.94276556 0.12505125 15.625 0.1875 C15.625 0.5175 15.625 0.8475 15.625 1.1875 C14.78203369 1.21255615 13.93906738 1.2376123 13.07055664 1.26342773 C9.95258326 1.35838155 6.83478497 1.45762448 3.71704102 1.55981445 C2.36585853 1.60321223 1.01461947 1.6448837 -0.33666992 1.68481445 C-2.27536701 1.74239952 -4.21386276 1.80664298 -6.15234375 1.87109375 C-7.32015381 1.90775146 -8.48796387 1.94440918 -9.69116211 1.98217773 C-12.29279795 1.88826188 -12.29279795 1.88826188 -13.375 3.1875 C-15.70747761 3.52676947 -18.04085471 3.85990066 -20.375 4.1875 C-21.365 4.6825 -21.365 4.6825 -22.375 5.1875 C-23.99609545 5.15372718 -25.61719024 5.11992264 -27.23828125 5.0859375 C-30.5941146 5.24544695 -33.78457464 6.06256287 -37.04296875 6.84765625 C-39.49203662 7.20455559 -41.04383718 6.95383628 -43.375 6.1875 C-40.59445241 5.4694465 -37.81110365 4.76735056 -35.02197266 4.08325195 C-32.7615916 3.52806799 -30.50418862 2.96040285 -28.25195312 2.37304688 C-18.70853346 0.06387499 -9.76474759 -0.17076494 0 0 Z " fill="#90DAA0" transform="translate(440.375,349.8125)"/>
<path d="M0 0 C13.53 0 27.06 0 41 0 C41 1.32 41 2.64 41 4 C27.47 3.01 13.94 2.02 0 1 C0 0.67 0 0.34 0 0 Z " fill="#0E0D0D" transform="translate(985,0)"/>
<path d="M0 0 C0.99 0.33 1.98 0.66 3 1 C3.47466266 3.37331332 3.94850287 5.74674475 4.41796875 8.12109375 C4.80034269 10.0124333 5.19832997 11.90069597 5.61328125 13.78515625 C5.80277344 14.66042969 5.99226562 15.53570313 6.1875 16.4375 C6.36667969 17.24058594 6.54585937 18.04367187 6.73046875 18.87109375 C7 21 7 21 6 24 C5.77281504 26.56634861 5.58391816 29.11678107 5.4375 31.6875 C5.39431641 32.38939453 5.35113281 33.09128906 5.30664062 33.81445312 C5.2008264 35.54275206 5.09993419 37.2713511 5 39 C4.67 39 4.34 39 4 39 C3.96261719 37.741875 3.92523437 36.48375 3.88671875 35.1875 C3.52750334 25.26478279 2.68304441 15.80764951 0.62109375 6.08984375 C0 3 0 3 0 0 Z " fill="#6ACD97" transform="translate(526,512)"/>
<path d="M0 0 C0.66 0.33 1.32 0.66 2 1 C0.68 2.65 -0.64 4.3 -2 6 C-1.34 6.66 -0.68 7.32 0 8 C-0.75023437 8.4125 -1.50046875 8.825 -2.2734375 9.25 C-9.40167092 13.27197553 -15.77092728 17.69426328 -22 23 C-22.66 22.67 -23.32 22.34 -24 22 C-17.93368726 16.40888176 -11.85989453 10.84107526 -5.625 5.4375 C-3.66596063 3.70450364 -1.81114313 1.88660743 0 0 Z " fill="#FDF1E8" transform="translate(612,339)"/>
<path d="M0 0 C-0.33 0.66 -0.66 1.32 -1 2 C-3.09790039 2.68603516 -3.09790039 2.68603516 -5.84765625 3.2890625 C-7.34522461 3.61777344 -7.34522461 3.61777344 -8.87304688 3.953125 C-9.92556641 4.17484375 -10.97808594 4.3965625 -12.0625 4.625 C-13.08794922 4.85445312 -14.11339844 5.08390625 -15.16992188 5.3203125 C-20.90677547 6.55357085 -26.1343327 7.26758146 -32 7 C-32 6.34 -32 5.68 -32 5 C-30.83082031 4.79503906 -29.66164063 4.59007812 -28.45703125 4.37890625 C-26.90884878 4.10680145 -25.360672 3.83466433 -23.8125 3.5625 C-23.04357422 3.42779297 -22.27464844 3.29308594 -21.48242188 3.15429688 C-16.80238403 2.3307709 -12.13696556 1.48081725 -7.5 0.4375 C-4.94832866 -0.00904248 -2.58483061 -0.0738523 0 0 Z " fill="#2EB893" transform="translate(794,731)"/>
<path d="M0 0 C7.40790218 -0.12569081 14.68360018 0.36983429 22.0625 1 C23.21427734 1.09539062 24.36605469 1.19078125 25.55273438 1.2890625 C28.36878079 1.5227593 31.18450107 1.75981223 34 2 C34 2.33 34 2.66 34 3 C22.78 3 11.56 3 0 3 C0 2.01 0 1.02 0 0 Z " fill="#0C0C0C" transform="translate(237,1251)"/>
<path d="M0 0 C-6.26532671 2.57676276 -12.54262326 4.95137027 -19 7 C-19.66386719 7.23074219 -20.32773437 7.46148438 -21.01171875 7.69921875 C-22.875 8.3125 -22.875 8.3125 -26 9 C-26.99 8.34 -27.98 7.68 -29 7 C-22.92232991 4.66815923 -16.79748682 2.56126044 -10.5625 0.6875 C-9.40878906 0.34074219 -8.25507812 -0.00601563 -7.06640625 -0.36328125 C-4.16109318 -0.96655008 -2.72617114 -1.03822243 0 0 Z " fill="#26B5A3" transform="translate(917,941)"/>
<path d="M0 0 C3.72943822 0.13935544 7.45847096 0.28762301 11.1875 0.4375 C12.24259766 0.47681641 13.29769531 0.51613281 14.38476562 0.55664062 C15.40634766 0.59853516 16.42792969 0.64042969 17.48046875 0.68359375 C18.88655396 0.73858032 18.88655396 0.73858032 20.32104492 0.79467773 C22.95114982 0.99625599 25.42766414 1.42678321 28 2 C28 2.33 28 2.66 28 3 C18.00729266 4.66545122 8.92995773 3.7377426 -1 2 C-0.67 1.34 -0.34 0.68 0 0 Z " fill="#26B6A5" transform="translate(712,964)"/>
<path d="M0 0 C0 0.99 0 1.98 0 3 C-3.30729573 4.16124034 -6.62160648 5.30106701 -9.9375 6.4375 C-10.86369141 6.76298828 -11.78988281 7.08847656 -12.74414062 7.42382812 C-18.5564828 9.40206388 -23.87303744 10.55383144 -30 11 C-27.7956859 8.7956859 -26.6536603 8.4382161 -23.7109375 7.59765625 C-22.85113281 7.34693359 -21.99132812 7.09621094 -21.10546875 6.83789062 C-19.75388672 6.45407227 -19.75388672 6.45407227 -18.375 6.0625 C-12.13843934 4.27212172 -6.0464069 2.36077659 0 0 Z " fill="#1CB09F" transform="translate(964,996)"/>
<path d="M0 0 C1.09477661 0.10634766 1.09477661 0.10634766 2.21166992 0.21484375 C2.87166992 1.20484375 3.53166992 2.19484375 4.21166992 3.21484375 C-7.33833008 3.21484375 -18.88833008 3.21484375 -30.78833008 3.21484375 C-30.78833008 2.88484375 -30.78833008 2.55484375 -30.78833008 2.21484375 C-26.22604069 1.87858563 -21.66346729 1.54634611 -17.10083008 1.21484375 C-15.80725586 1.11945313 -14.51368164 1.0240625 -13.1809082 0.92578125 C-11.31015625 0.79042969 -11.31015625 0.79042969 -9.40161133 0.65234375 C-8.25474854 0.56855469 -7.10788574 0.48476562 -5.92626953 0.3984375 C-3.94976678 0.28279679 -1.97403169 0.15210121 0 0 Z " fill="#0F0F0E" transform="translate(1013.788330078125,1250.78515625)"/>
<path d="M0 0 C3.58273331 1.65356922 6.80973467 3.67980703 10 6 C10 6.66 10 7.32 10 8 C11.08861328 8.39832031 11.08861328 8.39832031 12.19921875 8.8046875 C15.00170928 10.00072948 17.30479352 11.40329107 19.8125 13.125 C20.60269531 13.66382813 21.39289063 14.20265625 22.20703125 14.7578125 C22.79871094 15.16773438 23.39039063 15.57765625 24 16 C22.234375 16.64697266 22.234375 16.64697266 20 17 C18.140625 16.09130859 18.140625 16.09130859 16.25 14.6484375 C15.5590625 14.12636719 14.868125 13.60429688 14.15625 13.06640625 C13.4446875 12.50824219 12.733125 11.95007813 12 11.375 C11.2884375 10.84003906 10.576875 10.30507813 9.84375 9.75390625 C6.01601555 6.81883375 2.82774817 3.961793 0 0 Z " fill="#2CB39D" transform="translate(432,967)"/>
<path d="M0 0 C5.55232234 1.05410631 10.02304887 4.49495718 14.75 7.4375 C15.73355469 8.03626953 16.71710937 8.63503906 17.73046875 9.25195312 C18.65988281 9.82751953 19.58929687 10.40308594 20.546875 10.99609375 C21.40120117 11.52388428 22.25552734 12.0516748 23.13574219 12.59545898 C23.75094727 13.05895752 24.36615234 13.52245605 25 14 C25 14.66 25 15.32 25 16 C20.49380023 14.43225369 16.81418636 12.06224207 12.875 9.4375 C8.17686034 6.26507011 8.17686034 6.26507011 3 4 C1.3125 1.9375 1.3125 1.9375 0 0 Z " fill="#24B69C" transform="translate(569,918)"/>
<path d="M0 0 C0.66 0.33 1.32 0.66 2 1 C0.37938967 4.99432781 -2.39339173 7.79558321 -5.375 10.8125 C-6.09816406 11.5849707 -6.09816406 11.5849707 -6.8359375 12.37304688 C-8.2734375 13.83203125 -8.2734375 13.83203125 -11 16 C-13.3515625 15.82421875 -13.3515625 15.82421875 -15 15 C-14.16855469 14.25234375 -13.33710938 13.5046875 -12.48046875 12.734375 C-11.38264636 11.73976668 -10.28499933 10.74496479 -9.1875 9.75 C-8.64029297 9.25886719 -8.09308594 8.76773438 -7.52929688 8.26171875 C-4.69237675 5.68270045 -2.16715904 3.19370806 0 0 Z " fill="#4CC693" transform="translate(486,642)"/>
<path d="M0 0 C-1.09577229 3.28731688 -1.77804601 3.88003756 -4.375 6 C-9.90657712 10.67669702 -14.9246533 15.84068616 -20 21 C-20.66 20.67 -21.32 20.34 -22 20 C-19.19469153 17.1453424 -16.38292304 14.29722769 -13.56494141 11.45507812 C-12.60675044 10.48681462 -11.65036018 9.51676574 -10.69580078 8.54492188 C-9.3253618 7.1502903 -7.94793633 5.76253479 -6.5703125 4.375 C-5.74289551 3.53710938 -4.91547852 2.69921875 -4.06298828 1.8359375 C-2 0 -2 0 0 0 Z " fill="#212222" transform="translate(1186,1163)"/>
<path d="M0 0 C-2.64652393 3.1474731 -5.79939195 4.49972268 -9.5 6.1875 C-10.6446875 6.71730469 -11.789375 7.24710938 -12.96875 7.79296875 C-16 9 -16 9 -19 9 C-19 8.34 -19 7.68 -19 7 C-16.77675074 5.8206851 -14.54753361 4.65659082 -12.3125 3.5 C-11.68666016 3.16613281 -11.06082031 2.83226562 -10.41601562 2.48828125 C-6.79518683 0.6304738 -4.08595745 -0.43750214 0 0 Z " fill="#27B6A3" transform="translate(971,917)"/>
<path d="M0 0 C0 3 0 3 -1.0625 4.5625 C-6.92050855 8.90876441 -14.06136825 8.22585058 -21 8 C-21 7.67 -21 7.34 -21 7 C-19.35 7 -17.7 7 -16 7 C-16 6.34 -16 5.68 -16 5 C-15.26394531 4.97421875 -14.52789063 4.9484375 -13.76953125 4.921875 C-6.08058844 4.50939957 -6.08058844 4.50939957 0 0 Z " fill="#30B794" transform="translate(866,713)"/>
<path d="M0 0 C0.88316895 0.30321167 0.88316895 0.30321167 1.78417969 0.61254883 C-2.5395186 4.48896798 -10.17390474 10.61254883 -16.21582031 10.61254883 C-16.21582031 9.95254883 -16.21582031 9.29254883 -16.21582031 8.61254883 C-13.99659941 6.9421994 -11.79759026 5.42173053 -9.46582031 3.92504883 C-8.83160156 3.49643555 -8.19738281 3.06782227 -7.54394531 2.6262207 C-2.74270634 -0.47958076 -2.74270634 -0.47958076 0 0 Z " fill="#24B5A2" transform="translate(998.2158203125,899.387451171875)"/>
<path d="M0 0 C9.35775436 0.40685889 17.92982326 1.60438853 27 4 C19.23051989 6.39754259 8.68122708 4.16831687 1 2 C0.67 1.34 0.34 0.68 0 0 Z " fill="#6FCE85" transform="translate(458,351)"/>
<path d="M0 0 C-0.33 0.66 -0.66 1.32 -1 2 C-2.97652631 2.29647895 -4.95617675 2.58267744 -6.9453125 2.77734375 C-9.11202655 2.96866901 -9.11202655 2.96866901 -11.625 3.625 C-14.60211672 4.09507106 -17.06832442 3.61360652 -20 3 C-20 2.67 -20 2.34 -20 2 C-17.41842632 1.46867611 -14.83538244 0.94965621 -12.25 0.4375 C-11.52039063 0.28603516 -10.79078125 0.13457031 -10.0390625 -0.02148438 C-6.33442927 -0.74557178 -3.60677678 -1.09817231 0 0 Z " fill="#2FBC9F" transform="translate(820,755)"/>
<path d="M0 0 C7.89957062 -0.27990605 15.2472493 0.48462814 23 2 C22.34 2.66 21.68 3.32 21 4 C18.26962778 3.79393417 15.69582099 3.44589452 13 3 C10.6667409 2.64534462 8.33340407 2.29120029 6 1.9375 C3.99982697 1.62610943 1.99976696 1.3139878 0 1 C0 0.67 0 0.34 0 0 Z " fill="#10B196" transform="translate(688,962)"/>
<path d="M0 0 C-1 2 -1 2 -2.86328125 2.6328125 C-9.63233885 3.99310159 -16.1074821 4.21317066 -23 4 C-19.47765104 1.65176736 -17.11393342 1.45145613 -12.9375 0.9375 C-1.5958222 -0.47874666 -1.5958222 -0.47874666 0 0 Z " fill="#3DBBAD" transform="translate(861,956)"/>
<path d="M0 0 C7.0058484 0.65170683 16.93976443 1.93976443 22 7 C13.83952201 6.8014043 7.35642804 4.42541581 0 1 C0 0.67 0 0.34 0 0 Z " fill="#1CB39C" transform="translate(623,946)"/>
<path d="M0 0 C1.41174175 4.23522525 -0.2647314 7.14901655 -1.8125 11.125 C-2.08642578 11.86621094 -2.36035156 12.60742188 -2.64257812 13.37109375 C-4.73826581 18.86913291 -4.73826581 18.86913291 -7 20 C-6.47493172 14.78254934 -5.2201441 10.77348889 -2.9375 6.0625 C-2.38964844 4.91910156 -1.84179688 3.77570312 -1.27734375 2.59765625 C-0.85582031 1.74042969 -0.43429687 0.88320313 0 0 Z " fill="#2CB58F" transform="translate(876,687)"/>
<path d="M0 0 C0.66 0.33 1.32 0.66 2 1 C1.49210937 1.53367187 0.98421875 2.06734375 0.4609375 2.6171875 C-4.5364255 8.02631824 -8.44776012 13.55483749 -12 20 C-12.76171875 18.375 -12.76171875 18.375 -13 16 C-11.26953125 13.125 -11.26953125 13.125 -8.8125 10 C-8.01457031 8.96875 -7.21664063 7.9375 -6.39453125 6.875 C-4.36372135 4.43670295 -2.29102052 2.19095296 0 0 Z " fill="#71CE91" transform="translate(360,466)"/>
<path d="M0 0 C0.33 0 0.66 0 1 0 C3.16609483 5.86119777 3.27362942 10.86809061 2 17 C1.34 18.32 0.68 19.64 0 21 C0 14.07 0 7.14 0 0 Z " fill="#35C39C" transform="translate(537,799)"/>
<path d="M0 0 C0 0.33 0 0.66 0 1 C-1.98 1 -3.96 1 -6 1 C-6.33 1.99 -6.66 2.98 -7 4 C-9.50390625 4.94921875 -9.50390625 4.94921875 -12.5625 5.6875 C-13.57441406 5.93886719 -14.58632812 6.19023438 -15.62890625 6.44921875 C-16.41136719 6.63097656 -17.19382813 6.81273437 -18 7 C-15.85946942 4.65879468 -13.85334961 3.24763409 -11 1.875 C-10.319375 1.54242187 -9.63875 1.20984375 -8.9375 0.8671875 C-5.46142644 -0.68863575 -3.61679516 -1.12245367 0 0 Z " fill="#4B5669" transform="translate(263,516)"/>
<path d="M0 0 C-5.90123415 3.9341561 -11.11942374 4.27522305 -18 4 C-17.67 3.34 -17.34 2.68 -17 2 C-11.48328169 0.47749852 -5.71937774 -0.30915555 0 0 Z " fill="#22B1A2" transform="translate(933,1007)"/>
<path d="M0 0 C0.66 0 1.32 0 2 0 C2.84069415 1.60032137 3.67231505 3.20541171 4.5 4.8125 C4.9640625 5.70582031 5.428125 6.59914063 5.90625 7.51953125 C7 10 7 10 7 13 C7.66 13 8.32 13 9 13 C8.67 14.98 8.34 16.96 8 19 C5.92475055 15.88712582 4.75592914 12.99482112 3.4375 9.5 C3.00308594 8.3553125 2.56867187 7.210625 2.12109375 6.03125 C1.38184839 4.0324542 0.67391901 2.02175704 0 0 Z " fill="#63CA91" transform="translate(517,490)"/>
<path d="M0 0 C2.97 0 5.94 0 9 0 C9 0.66 9 1.32 9 2 C3.19233704 3.5056904 -1.9981863 4.21824777 -8 4 C-4.77208445 1.8480563 -3.71599191 1.79913557 0 2 C0 1.34 0 0.68 0 0 Z " fill="#2FB694" transform="translate(803,727)"/>
<path d="M0 0 C0.75796875 0.10699219 1.5159375 0.21398437 2.296875 0.32421875 C3.09480469 0.4325 3.89273438 0.54078125 4.71484375 0.65234375 C7.49704136 1.08109112 10.27601055 1.51438411 13.046875 2.01171875 C11.046875 4.01171875 11.046875 4.01171875 8.83984375 4.0234375 C7.55013672 3.86294922 7.55013672 3.86294922 6.234375 3.69921875 C4.89826172 3.53679688 4.89826172 3.53679688 3.53515625 3.37109375 C1.01534339 3.00716473 -1.47305234 2.59040237 -3.953125 2.01171875 C-1.953125 0.01171875 -1.953125 0.01171875 0 0 Z " fill="#37BBA7" transform="translate(520.953125,1008.98828125)"/>
<path d="M0 0 C1.51839575 3.92655206 0.43537717 6.71821846 -0.8125 10.625 C-1.16957031 11.77226563 -1.52664063 12.91953125 -1.89453125 14.1015625 C-3 17 -3 17 -5 19 C-4.52013969 13.43109483 -3.70084819 8.32932432 -2 3 C-1.34 3 -0.68 3 0 3 C0 2.01 0 1.02 0 0 Z " fill="#1EB499" transform="translate(691,824)"/>
<path d="M0 0 C0.66 0.33 1.32 0.66 2 1 C0.90557567 3.29679188 -0.19986661 5.58704964 -1.3125 7.875 C-1.62123047 8.52597656 -1.92996094 9.17695313 -2.24804688 9.84765625 C-3.88807385 13.19676398 -4.83508818 14.89005879 -8 17 C-6.3341708 10.83643195 -3.12194714 5.51740344 0 0 Z " fill="#70CF90" transform="translate(345,486)"/>
<path d="M0 0 C0.66 0 1.32 0 2 0 C1.96519531 0.75925781 1.93039062 1.51851562 1.89453125 2.30078125 C1.86746094 3.29464844 1.84039063 4.28851562 1.8125 5.3125 C1.77769531 6.29863281 1.74289062 7.28476562 1.70703125 8.30078125 C1.75721892 11.04574389 1.75721892 11.04574389 3.51171875 12.85546875 C4.24841797 13.42201172 4.24841797 13.42201172 5 14 C2.13275314 13.42655063 1.1385485 13.1385485 -1 11 C-1.1971417 6.86002433 -1.30765478 3.92296433 0 0 Z " fill="#2CB7A0" transform="translate(689,920)"/>
<path d="M0 0 C0.33 0.66 0.66 1.32 1 2 C1.66 2 2.32 2 3 2 C3.4803318 3.58298026 3.95921612 5.16639978 4.4375 6.75 C4.83775391 8.07257812 4.83775391 8.07257812 5.24609375 9.421875 C5.88468494 11.60565835 6.46775833 13.78835498 7 16 C4.27821353 13.62916021 3.11230393 11.3466216 1.8125 8 C1.46832031 7.13375 1.12414062 6.2675 0.76953125 5.375 C0 3 0 3 0 0 Z " fill="#1DB096" transform="translate(384,895)"/>
<path d="M0 0 C0.63292969 0.48082031 1.26585937 0.96164062 1.91796875 1.45703125 C6.07179471 3.53657657 9.72705203 3.56083017 14.3125 3.6875 C15.14845703 3.72166016 15.98441406 3.75582031 16.84570312 3.79101562 C18.89667772 3.87305461 20.94831538 3.9382151 23 4 C23 4.33 23 4.66 23 5 C19.91884257 5.28466242 16.83579677 5.52158834 13.75 5.75 C12.87730469 5.83121094 12.00460937 5.91242188 11.10546875 5.99609375 C4.6198258 6.44167227 4.6198258 6.44167227 1.390625 4.140625 C0 2 0 2 0 0 Z " fill="#71CF90" transform="translate(267,480)"/>
<path d="M0 0 C0.66 0 1.32 0 2 0 C3.0076952 1.7664657 4.00591714 3.53833823 5 5.3125 C5.8353125 6.79169922 5.8353125 6.79169922 6.6875 8.30078125 C8 11 8 11 8 14 C5.50447597 11.72402354 3.93377014 9.39278822 2.3125 6.4375 C1.87550781 5.65246094 1.43851562 4.86742187 0.98828125 4.05859375 C0 2 0 2 0 0 Z " fill="#1FB49A" transform="translate(394,918)"/>
<path d="M0 0 C-1.7873962 1.33905267 -3.58004953 2.67109066 -5.375 4 C-6.37273438 4.7425 -7.37046875 5.485 -8.3984375 6.25 C-11 8 -11 8 -13 8 C-11.8004855 4.40145651 -10.72074777 3.81383185 -7.625 1.75 C-6.83351563 1.20859375 -6.04203125 0.6671875 -5.2265625 0.109375 C-3 -1 -3 -1 0 0 Z " fill="#23B39E" transform="translate(1014,890)"/>
<path d="M0 0 C4.14298667 0.59834725 7.18194377 2.00664285 10.8125 4.0625 C11.78832031 4.61035156 12.76414062 5.15820312 13.76953125 5.72265625 C14.50558594 6.14417969 15.24164062 6.56570313 16 7 C15.01 7.495 15.01 7.495 14 8 C10.99609375 6.85546875 10.99609375 6.85546875 7.4375 5.1875 C5.67212891 4.37345703 5.67212891 4.37345703 3.87109375 3.54296875 C1 2 1 2 0 0 Z " fill="#70CD89" transform="translate(520,367)"/>
<path d="M0 0 C0.99 0.33 1.98 0.66 3 1 C-3.435 5.95 -3.435 5.95 -10 11 C-10 10.01 -10 9.02 -10 8 C-7.91796875 5.921875 -7.91796875 5.921875 -5.1875 3.75 C-4.29417969 3.02296875 -3.40085937 2.2959375 -2.48046875 1.546875 C-1.25263672 0.78117188 -1.25263672 0.78117188 0 0 Z " fill="#24B4A2" transform="translate(1026,877)"/>
<path d="M0 0 C0.66 0.66 1.32 1.32 2 2 C0.02 4.31 -1.96 6.62 -4 9 C-4.66 8.34 -5.32 7.68 -6 7 C-4.02 4.69 -2.04 2.38 0 0 Z " fill="#4BC49A" transform="translate(576,720)"/>
<path d="M0 0 C0.66 0.66 1.32 1.32 2 2 C0.02 4.31 -1.96 6.62 -4 9 C-4.99 8.67 -5.98 8.34 -7 8 C-4.69 5.36 -2.38 2.72 0 0 Z " fill="#57C899" transform="translate(500,626)"/>
<path d="M0 0 C1.91406664 3.82813327 2.39374947 4.96406789 2 9 C1 11.8125 1 11.8125 0 14 C-0.66 13.67 -1.32 13.34 -2 13 C-1.34 8.71 -0.68 4.42 0 0 Z " fill="#56C78F" transform="translate(529,560)"/>
<path d="M0 0 C0.99 0.66 1.98 1.32 3 2 C1.23569031 3.34195372 -0.5366791 4.67331668 -2.3125 6 C-3.29863281 6.7425 -4.28476562 7.485 -5.30078125 8.25 C-8 10 -8 10 -11 10 C-5.555 5.05 -5.555 5.05 0 0 Z " fill="#FCD8B0" transform="translate(599,351)"/>
<path d="M0 0 C0.33 1.32 0.66 2.64 1 4 C-2.3125 4.1875 -2.3125 4.1875 -6 4 C-6.99 3.01 -7.98 2.02 -9 1 C-4.545 0.505 -4.545 0.505 0 0 Z " fill="#434E61" transform="translate(264,730)"/>
<path d="M0 0 C3.7952131 1.49097658 5.61042731 3.75700849 8 7 C4.47967572 7 3.5614657 6.29648649 1 4 C1 3.34 1 2.68 1 2 C0.34 1.67 -0.32 1.34 -1 1 C-0.67 0.67 -0.34 0.34 0 0 Z " fill="#36BEA3" transform="translate(547,898)"/>
<path d="M0 0 C0.66 0 1.32 0 2 0 C2.99 3.3 3.98 6.6 5 10 C4.01 10.495 4.01 10.495 3 11 C2.49384702 9.73160474 1.99530901 8.46016898 1.5 7.1875 C1.2215625 6.47980469 0.943125 5.77210938 0.65625 5.04296875 C0 3 0 3 0 0 Z " fill="#2DBCA2" transform="translate(1021,765)"/>
<path d="M0 0 C3 3 3 3 3.375 6 C3 9 3 9 0 12 C0 8.04 0 4.08 0 0 Z " fill="#556070" transform="translate(199,602)"/>
<path d="M0 0 C0.33 0.99 0.66 1.98 1 3 C-0.65 4.65 -2.3 6.3 -4 8 C-4.99 7.67 -5.98 7.34 -7 7 C-4.69 4.69 -2.38 2.38 0 0 Z " fill="#86D597" transform="translate(313,401)"/>
<path d="M0 0 C0.99 0.33 1.98 0.66 3 1 C3.33 1.99 3.66 2.98 4 4 C4.66 4.66 5.32 5.32 6 6 C4.125 6.625 4.125 6.625 2 7 C0 5 0 5 -0.125 2.375 C-0.08375 1.59125 -0.0425 0.8075 0 0 Z " fill="#3F4B5F" transform="translate(307,703)"/>
<path d="M0 0 C2 4 2 4 1.125 7.75 C0.75375 8.8225 0.3825 9.895 0 11 C-0.66 10.67 -1.32 10.34 -2 10 C-1.34 6.7 -0.68 3.4 0 0 Z " fill="#63CA93" transform="translate(660,602)"/>
<path d="M0 0 C0 1.66666667 0 3.33333333 0 5 C-1.53125 6.2890625 -1.53125 6.2890625 -3.5 7.625 C-4.1496875 8.07101563 -4.799375 8.51703125 -5.46875 8.9765625 C-5.9740625 9.31429687 -6.479375 9.65203125 -7 10 C-5.33248852 6.05860922 -2.77289351 3.2107188 0 0 Z " fill="#D6D5D8" transform="translate(65,98)"/>
<path d="M0 0 C-1.231394 3.69418201 -3.20791354 5.35109746 -6 8 C-6.99 7.67 -7.98 7.34 -9 7 C-7.88121617 5.82737096 -6.75476949 4.66204862 -5.625 3.5 C-4.68527344 2.52546875 -4.68527344 2.52546875 -3.7265625 1.53125 C-2 0 -2 0 0 0 Z " fill="#151516" transform="translate(1186,1163)"/>
<path d="M0 0 C1.00000429 4.00001715 0.80688405 6.05523353 0 10 C-0.99 10.33 -1.98 10.66 -3 11 C-2.01 7.37 -1.02 3.74 0 0 Z " fill="#4DC2B4" transform="translate(710,855)"/>
<path d="M0 0 C0.66 0 1.32 0 2 0 C2.99 2.97 3.98 5.94 5 9 C4.01 8.67 3.02 8.34 2 8 C0.5522078 5.10441559 0 3.25811062 0 0 Z " fill="#3DBEA5" transform="translate(517,851)"/>
<path d="M0 0 C4.43458973 1.3937282 6.87378374 3.60582235 10 7 C5.61308455 6.49381745 3.15608721 3.86917019 0 1 C0 0.67 0 0.34 0 0 Z " fill="#3AB68E" transform="translate(707,729)"/>
<path d="M0 0 C0.66 0.99 1.32 1.98 2 3 C0.71937515 4.7074998 -0.61767557 6.37373596 -2 8 C-2.66 8 -3.32 8 -4 8 C-2.87548273 5.0280615 -1.77706209 2.66559313 0 0 Z " fill="#F66250" transform="translate(496,305)"/>
<path d="M0 0 C0 0.99 0 1.98 0 3 C-0.99 3.33 -1.98 3.66 -3 4 C-3.33 4.99 -3.66 5.98 -4 7 C-4.99 6.67 -5.98 6.34 -7 6 C-4.69 4.02 -2.38 2.04 0 0 Z " fill="#1B1C1C" transform="translate(1163,1184)"/>
<path d="M0 0 C0.33 0.99 0.66 1.98 1 3 C0.01 4.485 0.01 4.485 -1 6 C-1.66 6 -2.32 6 -3 6 C-3.33 6.99 -3.66 7.98 -4 9 C-4.66 8.34 -5.32 7.68 -6 7 C-4.02 4.69 -2.04 2.38 0 0 Z " fill="#19191A" transform="translate(1193,1152)"/>
<path d="M0 0 C2.72869407 0.03287583 5.2966618 0.56397771 8 1 C7.34 1.66 6.68 2.32 6 3 C3.27130593 2.96712417 0.7033382 2.43602229 -2 2 C-1.34 1.34 -0.68 0.68 0 0 Z " fill="#19B49D" transform="translate(703,963)"/>
<path d="M0 0 C1.65 0 3.3 0 5 0 C5.33 0.66 5.66 1.32 6 2 C1.375 4.125 1.375 4.125 -2 3 C-1.34 3 -0.68 3 0 3 C0 2.01 0 1.02 0 0 Z " fill="#4DC1A3" transform="translate(736,742)"/>
<path d="M0 0 C2 3 2 3 1.625 5.6875 C1.41875 6.450625 1.2125 7.21375 1 8 C0.01 8 -0.98 8 -2 8 C-1.34 5.36 -0.68 2.72 0 0 Z " fill="#52C5A5" transform="translate(916,657)"/>
<path d="M0 0 C0 0.33 0 0.66 0 1 C-5.16044765 2.512545 -8.65998179 3.33500455 -14 2 C-14 1.67 -14 1.34 -14 1 C-9.23692563 0.04738513 -4.8333472 -0.08333357 0 0 Z " fill="#8BD9AE" transform="translate(732,574)"/>
<path d="M0 0 C5.445 1.485 5.445 1.485 11 3 C10.01 3.66 9.02 4.32 8 5 C5.1524013 4.24451463 2.63227284 3.31613642 0 2 C0 1.34 0 0.68 0 0 Z " fill="#6ECB86" transform="translate(490,356)"/>
</svg>
